<?xml version="1.0" standalone="no"?>
<!DOCTYPE svg PUBLIC "-//W3C//DTD SVG 20010904//EN"
 "http://www.w3.org/TR/2001/REC-SVG-20010904/DTD/svg10.dtd">
<svg version="1.0" xmlns="http://www.w3.org/2000/svg"
 width="1117.000000pt" height="607.000000pt" viewBox="0 0 1117.000000 607.000000"
 preserveAspectRatio="xMidYMid meet">
<metadata>
Created by potrace 1.16, written by Peter Selinger 2001-2019
</metadata>
<g transform="translate(0.000000,607.000000) scale(0.100000,-0.100000)"
fill="#FFFFFF" stroke="#FFFFFF">
<path d="M3790 5688 c-44 -30 -93 -113 -175 -301 -126 -284 -196 -535 -249
-885 -40 -257 -63 -588 -81 -1142 -17 -504 -35 -714 -90 -1046 -38 -226 -38
-234 5 -234 33 0 41 21 66 161 58 338 74 554 84 1124 6 365 13 569 24 656 9
70 20 166 26 215 40 349 109 674 181 857 54 137 157 333 194 373 30 31 31 32
103 26 73 -5 73 -5 123 47 65 68 64 93 -5 135 -68 42 -156 48 -206 14z"/>
<path d="M3955 5263 c-11 -3 -23 -8 -27 -12 -11 -10 -33 -183 -63 -496 -14
-148 -32 -313 -40 -365 -8 -52 -21 -162 -30 -245 -9 -82 -22 -176 -30 -209
-12 -54 -11 -60 6 -77 22 -22 62 -25 78 -6 12 16 27 118 36 257 3 52 13 145
21 205 8 61 23 191 34 290 22 202 26 225 40 225 12 0 9 10 130 -500 56 -234
106 -437 112 -452 13 -34 40 -36 61 -5 8 13 29 70 45 128 42 143 288 839 302
853 8 8 11 -115 9 -488 -1 -416 0 -500 12 -507 23 -14 159 -11 159 4 0 6 0
320 0 697 0 630 -2 686 -17 698 -24 17 -118 16 -136 -3 -8 -8 -53 -128 -100
-267 -206 -612 -234 -688 -249 -688 -4 0 -8 14 -8 32 0 17 -40 198 -89 402
-49 204 -95 398 -102 431 -18 91 -30 105 -87 104 -26 -1 -56 -3 -67 -6z"/>
<path d="M3335 5199 c-55 -10 -181 -28 -280 -39 -204 -24 -390 -59 -494 -95
-216 -73 -377 -204 -503 -407 -28 -46 -64 -102 -79 -125 -16 -23 -29 -46 -29
-52 0 -27 31 -6 81 56 161 199 388 384 543 442 62 23 224 50 539 91 131 16
240 30 243 30 11 0 1 -43 -41 -171 -116 -360 -152 -677 -165 -1444 -12 -643
-36 -926 -105 -1213 -14 -57 -25 -126 -25 -153 0 -46 2 -50 21 -47 18 2 25 19
46 98 49 189 85 379 109 579 22 191 24 236 24 710 0 810 27 1052 166 1486 35
110 71 212 80 228 17 30 12 47 -14 46 -9 0 -62 -9 -117 -20z"/>
<path d="M6517 5008 c-93 -20 -82 1 -220 -415 -69 -208 -131 -398 -137 -423
-27 -108 -61 -210 -71 -210 -6 0 -18 9 -27 19 -17 19 -18 19 -112 -5 -152 -40
-212 -24 -259 70 -45 89 -51 342 -16 583 21 141 24 149 51 177 44 43 114 52
244 31 65 -10 115 -14 120 -9 13 15 41 137 33 145 -15 15 -158 31 -229 27
-174 -11 -312 -156 -375 -393 -30 -111 -38 -378 -15 -488 22 -107 51 -170 98
-213 56 -51 95 -64 186 -64 89 0 167 20 223 57 40 26 59 24 59 -6 0 -23 17
-37 53 -43 35 -7 33 -10 88 192 28 104 48 161 61 173 17 14 40 17 143 17 86 0
125 -4 132 -12 5 -7 20 -87 33 -178 13 -91 28 -170 34 -176 18 -18 146 -26
152 -10 3 8 -26 195 -65 417 -56 323 -121 717 -121 734 0 9 -30 11 -63 3z
m-57 -236 c0 -4 16 -97 35 -207 19 -110 31 -203 27 -206 -4 -4 -51 -9 -105
-13 -79 -5 -98 -4 -103 8 -4 10 87 323 121 414 5 13 25 17 25 4z"/>
<path d="M8942 5001 c-30 -10 -60 -25 -67 -32 -7 -8 -36 -86 -64 -174 -109
-350 -273 -841 -287 -862 -40 -62 26 -128 74 -73 9 11 38 90 64 176 25 85 54
164 64 175 15 17 31 19 140 19 68 0 125 -4 128 -8 3 -4 16 -86 31 -181 14 -96
28 -178 31 -182 7 -12 161 -11 168 0 4 5 -1 35 -9 68 -8 32 -42 218 -75 413
-101 591 -112 655 -123 668 -12 15 -11 15 -75 -7z m-38 -248 c11 -51 66 -378
66 -390 0 -10 -27 -13 -100 -13 -70 0 -100 4 -100 12 0 6 25 101 55 210 30
109 55 200 55 203 0 3 4 5 9 5 5 0 12 -12 15 -27z"/>
<path d="M6916 4995 c-20 -20 -28 -104 -51 -510 -8 -143 -22 -340 -31 -438
-11 -107 -14 -181 -8 -187 18 -18 61 -22 76 -7 14 15 39 286 55 615 3 73 9
135 13 137 13 8 28 -13 68 -95 22 -47 79 -146 125 -220 46 -74 112 -186 148
-249 65 -117 157 -230 176 -218 18 11 23 60 53 596 16 287 32 526 35 532 19
30 -60 54 -83 26 -7 -8 -18 -144 -27 -338 -17 -351 -22 -409 -34 -409 -5 0
-26 30 -48 68 -22 37 -105 175 -185 307 -80 132 -164 273 -187 312 -47 81 -71
101 -95 78z"/>
<path d="M8275 4986 c-128 -40 -228 -141 -281 -282 -67 -178 -73 -564 -12
-706 28 -66 102 -133 169 -152 50 -15 63 -15 164 0 110 16 110 16 152 62 46
50 51 63 29 81 -11 9 -28 7 -77 -9 -176 -60 -255 -28 -300 121 -20 65 -21 86
-16 272 11 426 67 510 309 462 48 -9 94 -15 104 -13 21 4 57 128 43 149 -16
26 -215 37 -284 15z"/>
<path d="M5021 4981 c-10 -6 -17 -70 -27 -252 -8 -134 -23 -364 -34 -510 -31
-416 -57 -369 199 -369 244 0 245 0 239 67 -3 38 -3 38 -140 41 -92 2 -139 6
-146 15 -9 11 3 361 13 395 3 9 36 12 119 12 113 0 116 1 132 26 13 19 15 32
8 52 -9 27 -11 27 -124 32 -115 5 -115 5 -118 35 -6 45 18 319 28 329 4 4 58
10 119 12 140 4 153 10 149 72 -3 47 -3 47 -203 49 -110 2 -206 -1 -214 -6z"/>
<path d="M7713 4978 c-6 -7 -11 -40 -12 -73 -1 -33 -15 -276 -31 -540 -17
-264 -30 -488 -30 -497 0 -16 10 -18 75 -18 69 0 75 2 79 23 10 45 68 1096 61
1107 -9 15 -130 13 -142 -2z"/>
<path d="M2750 4420 c-19 -5 -107 -18 -195 -30 -208 -27 -358 -61 -518 -117
-265 -92 -326 -124 -383 -203 -137 -187 -292 -553 -404 -956 -30 -108 -48
-155 -65 -170 -12 -12 -99 -47 -191 -78 -93 -31 -214 -79 -269 -105 -128 -61
-364 -201 -435 -258 -124 -99 -223 -243 -267 -388 -25 -86 -25 -506 0 -645 29
-159 49 -244 59 -255 16 -18 25 14 17 63 -14 87 -10 569 6 667 26 162 93 312
176 395 142 142 643 410 831 445 49 9 54 -5 34 -86 -9 -35 -23 -107 -31 -162
-9 -55 -18 -103 -21 -108 -8 -14 -54 -243 -49 -247 12 -13 35 26 46 76 6 31
22 100 35 152 13 52 28 127 34 165 6 39 18 80 26 92 7 12 14 33 14 46 0 60 12
86 44 96 46 15 397 76 640 112 306 44 432 83 535 167 172 139 294 368 397 741
37 134 43 191 20 191 -8 0 -18 -22 -25 -60 -37 -185 -140 -420 -255 -582 -186
-260 -320 -326 -761 -373 -273 -29 -481 -54 -497 -60 -41 -16 -33 18 67 295
92 250 242 583 306 676 66 98 139 164 231 210 217 109 491 195 781 245 132 23
187 37 187 46 0 15 -63 16 -120 3z"/>
<path d="M4565 3789 c-91 -30 -113 -41 -122 -62 -18 -39 -101 -317 -133 -447
-17 -69 -49 -179 -70 -245 -21 -66 -53 -169 -70 -230 -17 -60 -51 -174 -76
-253 -54 -175 -55 -192 -15 -192 71 0 72 1 130 216 30 110 59 209 64 220 7 17
21 23 61 28 89 10 221 7 239 -6 12 -10 24 -65 48 -223 17 -115 35 -216 41
-222 15 -18 142 -17 157 0 14 17 3 105 -74 617 -85 567 -119 784 -128 798 -9
14 -11 14 -52 1z m-40 -542 c20 -137 34 -255 31 -263 -8 -20 -224 -20 -232 -1
-4 12 91 373 133 502 13 41 17 46 24 30 5 -11 24 -132 44 -268z"/>
<path d="M5785 3784 c-11 -1 -66 -8 -122 -14 -56 -7 -107 -17 -112 -24 -15
-18 -95 -1366 -82 -1379 7 -7 76 -11 194 -11 183 -1 183 -1 259 37 133 65 223
187 267 362 42 166 54 266 55 445 1 154 -2 184 -22 254 -43 150 -90 227 -166
271 -60 35 -207 67 -271 59z m112 -176 c75 -35 135 -126 159 -239 14 -64 14
-103 4 -294 -6 -121 -15 -242 -20 -270 -33 -190 -148 -315 -289 -315 -68 0
-98 8 -105 26 -4 9 40 886 54 1091 0 1 7 9 16 17 20 21 122 12 181 -16z"/>
<path d="M7106 3769 c-38 -5 -75 -14 -83 -20 -8 -7 -13 -33 -13 -68 0 -31 -9
-191 -20 -356 -36 -548 -52 -799 -53 -880 -2 -79 -2 -79 48 -88 28 -5 104 -9
170 -10 115 -1 123 0 186 29 76 36 129 94 161 176 26 68 37 292 18 383 -11 54
-18 66 -73 118 -61 58 -61 58 -15 105 58 60 76 95 94 189 20 107 17 196 -9
272 -19 55 -29 69 -69 97 -74 50 -210 71 -342 53z m187 -166 c15 -8 37 -28 48
-46 18 -28 20 -45 17 -152 -4 -134 -17 -170 -74 -206 -34 -21 -118 -26 -129
-8 -10 15 16 412 28 427 11 14 66 7 110 -15z m-40 -587 c44 -18 95 -78 103
-122 4 -21 4 -89 0 -151 -8 -153 -33 -202 -119 -238 -45 -19 -87 -19 -112 -1
-17 13 -18 23 -6 257 7 134 18 250 23 257 14 16 70 15 111 -2z"/>
<path d="M8292 3768 c-8 -8 -12 -47 -12 -109 0 -54 -9 -236 -20 -406 -10 -169
-24 -405 -30 -523 -6 -118 -15 -246 -20 -285 -10 -86 -2 -99 56 -87 39 8 39 8
47 107 5 55 18 262 30 460 13 220 26 360 32 360 6 -1 44 -64 85 -140 42 -77
138 -255 215 -395 76 -140 152 -283 168 -318 35 -75 67 -97 106 -73 19 12 104
1380 87 1399 -9 9 -24 10 -52 4 -45 -9 -38 36 -69 -487 -21 -372 -27 -435 -36
-435 -5 0 -16 15 -25 33 -20 39 -161 298 -302 552 -58 104 -118 217 -133 251
-39 86 -94 125 -127 92z"/>
<path d="M10449 3764 c-60 -21 -132 -76 -186 -142 -33 -41 -50 -76 -77 -165
-57 -182 -70 -275 -70 -507 -1 -184 1 -214 22 -289 59 -215 149 -307 313 -319
51 -3 82 1 131 17 81 27 115 52 173 127 102 131 150 272 175 513 39 394 -42
662 -229 753 -60 29 -186 35 -252 12z m189 -174 c44 -27 89 -123 109 -232 24
-133 2 -493 -43 -690 -12 -54 -22 -73 -49 -97 -79 -69 -229 -69 -292 0 -59 65
-88 231 -78 444 17 348 51 506 120 551 71 47 178 58 233 24z"/>
<path d="M3500 3747 c0 -14 40 -272 90 -574 49 -301 99 -604 110 -672 11 -69
26 -128 33 -133 16 -10 128 -10 144 0 7 4 58 167 113 362 158 554 219 766 257
892 20 64 33 123 30 132 -9 22 -60 21 -85 -1 -22 -19 -34 -58 -177 -583 -93
-341 -130 -479 -139 -522 -9 -41 -24 -34 -31 15 -100 680 -162 1087 -166 1091
-3 3 -44 9 -92 12 -87 7 -87 7 -87 -19z"/>
<path d="M4984 3757 c-10 -6 -14 -28 -14 -75 0 -37 -4 -125 -10 -197 -5 -71
-21 -328 -35 -570 -14 -242 -28 -459 -31 -483 -11 -72 -12 -72 243 -72 255 0
236 -8 237 94 1 61 1 61 -144 64 -79 1 -147 7 -150 12 -3 5 11 280 31 612 21
332 34 606 31 610 -10 10 -141 14 -158 5z"/>
<path d="M6431 3758 c-11 -4 -21 -11 -21 -15 0 -4 -18 -311 -41 -681 -22 -370
-38 -680 -35 -688 4 -12 45 -14 245 -14 145 0 242 4 246 10 3 5 9 32 12 60 9
77 3 80 -146 80 -134 0 -167 5 -174 24 -3 6 0 114 7 239 9 182 14 230 26 237
8 5 70 10 136 10 142 0 147 3 142 82 -3 53 -3 53 -135 56 -92 2 -132 6 -136
15 -3 9 12 306 22 428 1 3 67 9 148 13 80 4 150 9 155 12 12 8 10 122 -3 130
-16 10 -422 12 -448 2z"/>
<path d="M7689 3756 c-5 -6 -9 -39 -9 -75 0 -84 -35 -695 -55 -951 -8 -107
-16 -233 -17 -280 -3 -85 -3 -85 238 -88 188 -2 244 1 252 11 12 14 19 123 9
133 -3 3 -68 5 -144 5 -77 -1 -147 1 -156 5 -13 4 -17 18 -17 53 0 83 23 420
30 431 4 7 58 13 135 16 70 3 132 7 136 10 5 3 9 34 9 69 0 64 0 64 -132 67
-133 3 -133 3 -129 163 1 88 6 187 10 220 6 60 6 60 148 65 84 3 147 10 153
16 16 16 25 120 11 128 -17 11 -461 12 -472 2z"/>
<path d="M9200 3744 c-6 -14 -10 -45 -10 -70 0 -51 -67 -1175 -74 -1245 -3
-28 0 -51 7 -58 17 -17 142 -14 157 4 9 11 23 211 47 692 40 774 46 703 -59
703 -54 0 -59 -2 -68 -26z"/>
<path d="M9444 3755 c-7 -6 -15 -34 -16 -64 -3 -52 -2 -54 27 -63 17 -5 74
-11 128 -15 53 -3 97 -8 97 -11 0 -3 -17 -262 -37 -576 -20 -314 -37 -591 -37
-616 -1 -45 -1 -45 76 -48 66 -2 78 0 86 15 5 10 15 135 22 278 6 143 22 413
35 599 19 280 26 342 39 351 9 7 64 15 123 18 59 4 110 10 114 15 4 4 9 33 11
65 3 58 3 58 -326 60 -207 1 -334 -2 -342 -8z"/>
<path d="M11007 2938 c-49 -66 -40 -20 -206 -1048 -44 -272 -90 -569 -101
-660 -12 -91 -24 -176 -26 -189 -5 -24 -5 -24 -220 -19 -118 3 -218 9 -221 12
-4 3 -10 61 -15 127 -14 206 -45 351 -107 501 -47 112 -102 191 -200 289 -70
71 -102 94 -172 127 -100 48 -223 85 -359 110 -85 15 -187 17 -1000 16 -673 0
-911 -4 -927 -12 -26 -14 -39 -50 -25 -64 7 -7 203 -16 524 -24 708 -18 1253
-42 1378 -60 211 -31 376 -104 502 -223 121 -114 184 -215 233 -375 37 -121
62 -267 70 -414 4 -67 11 -124 14 -127 4 -2 102 0 217 5 115 5 263 11 327 12
75 2 122 7 128 15 6 6 14 52 19 102 6 50 14 122 20 159 5 37 26 211 45 387 57
510 113 988 136 1146 30 216 20 279 -34 207z"/>
<path d="M5348 2144 c-21 -20 -7 -43 30 -49 58 -10 157 -43 207 -71 66 -38
194 -162 252 -246 142 -206 235 -507 250 -806 3 -73 10 -135 14 -137 4 -3 63
4 131 15 154 25 183 25 342 -1 85 -15 134 -19 144 -13 12 8 16 37 19 129 7
233 55 486 119 625 46 99 86 162 156 241 62 71 146 123 263 164 59 20 82 46
51 58 -20 8 -167 -38 -241 -75 -83 -42 -225 -187 -287 -294 -75 -128 -139
-340 -153 -509 -15 -178 -8 -168 -136 -185 -75 -10 -96 -9 -189 10 -58 12
-113 29 -122 37 -14 13 -18 32 -18 92 0 290 -136 602 -355 814 -76 74 -158
125 -270 168 -78 31 -192 49 -207 33z"/>
<path d="M1373 2035 c-137 -31 -308 -147 -401 -272 -145 -196 -234 -441 -268
-735 -9 -80 -20 -151 -24 -157 -6 -10 -264 -33 -480 -43 -41 -2 -55 -7 -55
-18 0 -10 12 -16 35 -18 19 -1 163 -16 318 -33 156 -17 287 -27 291 -23 4 5
13 88 20 185 17 256 42 370 122 551 123 279 329 438 565 438 136 -1 279 -46
564 -180 91 -43 183 -83 205 -90 22 -7 102 -39 178 -72 224 -94 386 -133 607
-144 249 -13 582 48 833 152 32 14 81 31 110 38 31 8 52 19 52 27 0 18 -93 14
-275 -11 -344 -49 -482 -60 -630 -49 -356 27 -676 121 -1182 348 -222 99 -270
113 -408 117 -75 2 -137 -1 -177 -11z"/>
<path d="M5041 1970 c-123 -44 -211 -118 -317 -265 -113 -158 -194 -369 -252
-655 -27 -135 -27 -135 -1131 -138 -732 -1 -1108 1 -1116 8 -7 6 -18 52 -24
103 -31 231 -132 496 -223 584 -41 39 -168 113 -195 113 -28 0 -11 -36 28 -60
53 -32 133 -128 182 -219 66 -123 107 -348 107 -596 0 -57 4 -95 12 -103 16
-16 2443 -18 2453 -1 4 5 11 54 15 108 17 195 53 350 120 522 77 198 152 310
262 396 198 152 385 145 638 -25 124 -83 118 -31 -8 74 -86 71 -180 127 -259
153 -83 28 -216 28 -292 1z"/>
<path d="M9053 1673 c-11 -21 -49 -87 -86 -147 -114 -186 -142 -310 -134 -591
5 -207 22 -287 87 -424 84 -175 190 -289 336 -362 89 -44 89 -44 204 -44 108
0 120 2 192 33 54 24 97 52 145 96 37 34 83 72 101 85 17 12 32 27 32 32 0 22
-49 6 -112 -37 -83 -55 -162 -88 -248 -104 -97 -18 -185 2 -325 71 -118 58
-245 218 -301 377 -92 264 -41 694 112 942 35 58 46 100 28 107 -6 2 -20 -13
-31 -34z"/>
<path d="M7056 1667 c-56 -96 -128 -240 -151 -302 -51 -138 -60 -196 -60 -400
1 -164 4 -201 22 -270 32 -114 65 -195 120 -289 53 -90 101 -143 192 -210 84
-61 157 -87 264 -94 154 -9 272 43 430 190 45 43 58 70 38 82 -5 3 -24 -8 -42
-25 -37 -33 -137 -87 -221 -119 -118 -46 -218 -34 -378 42 -158 76 -260 211
-326 433 -22 75 -27 116 -31 242 -6 172 6 276 44 397 32 103 97 251 129 298
25 36 25 58 1 58 -7 0 -20 -15 -31 -33z"/>
<path d="M4938 1608 c-23 -20 -104 -167 -139 -255 -90 -225 -102 -481 -34
-718 74 -261 239 -456 437 -516 165 -51 333 -3 496 141 45 40 82 77 82 82 0
20 -43 5 -78 -27 -46 -41 -179 -100 -260 -115 -64 -11 -120 -4 -212 28 -109
38 -155 66 -226 136 -146 146 -214 339 -214 606 0 113 24 279 50 360 21 62 80
185 117 242 20 32 8 57 -19 36z"/>
<path d="M1106 1466 c-116 -221 -156 -358 -156 -538 0 -177 41 -348 121 -497
60 -113 99 -162 175 -219 170 -128 357 -145 535 -51 60 32 202 152 207 175 6
25 -21 15 -86 -30 -127 -89 -281 -126 -399 -97 -67 17 -206 84 -255 123 -49
39 -114 137 -155 234 -122 285 -104 556 58 903 48 101 59 141 40 141 -5 0 -43
-65 -85 -144z"/>
<path d="M9429 1591 c-46 -15 -151 -74 -156 -88 -11 -27 9 -27 60 2 45 25 61
28 124 27 93 -2 132 -19 198 -86 85 -88 117 -192 118 -391 2 -185 -30 -293
-123 -416 -35 -47 -38 -55 -25 -68 20 -20 33 -7 97 97 58 93 69 123 93 247 21
109 19 197 -6 313 -36 167 -97 267 -200 329 -58 34 -134 49 -180 34z"/>
<path d="M5291 1557 c-61 -21 -94 -47 -78 -63 4 -4 29 0 55 9 71 25 115 30
158 18 70 -19 130 -65 179 -138 58 -88 78 -173 77 -338 0 -188 -29 -288 -116
-410 -40 -56 -45 -75 -17 -75 18 0 80 80 116 149 69 136 94 357 56 513 -41
173 -115 287 -216 334 -63 30 -130 30 -214 1z"/>
<path d="M7445 1516 c-79 -26 -135 -55 -135 -71 0 -19 5 -19 75 5 66 23 139
26 199 8 48 -15 134 -95 165 -155 37 -73 64 -200 63 -298 -1 -168 -31 -275
-113 -401 -46 -69 -56 -104 -30 -104 12 0 97 112 121 160 41 82 72 204 77 310
9 167 -31 303 -127 432 -83 111 -184 150 -295 114z"/>
<path d="M1408 1448 c-55 -18 -88 -35 -88 -44 0 -18 6 -18 96 7 157 43 267
-12 349 -175 49 -99 68 -197 61 -318 -9 -161 -47 -271 -134 -387 -40 -53 -45
-71 -17 -71 22 0 95 99 131 178 54 118 69 190 68 332 -1 106 -5 137 -28 206
-60 185 -186 306 -315 303 -20 0 -75 -14 -123 -31z"/>
</g>
</svg>
